<?xml version="1.0" encoding="UTF-8"?>
<svg version="1.1" xmlns="http://www.w3.org/2000/svg" width="415" height="300">
<path d="M0 0 C136.95 0 273.9 0 415 0 C415 99 415 198 415 300 C278.05 300 141.1 300 0 300 C0 201 0 102 0 0 Z " fill="#FCFE04" transform="translate(0,0)"/>
<path d="M0 0 C136.95 0 273.9 0 415 0 C415 43.89 415 87.78 415 133 C278.05 133 141.1 133 0 133 C0 89.11 0 45.22 0 0 Z " fill="#FC0204" transform="translate(0,0)"/>
<path d="M0 0 C136.95 0 273.9 0 415 0 C415 22.11 415 44.22 415 67 C278.05 67 141.1 67 0 67 C0 44.89 0 22.78 0 0 Z " fill="#FC0204" transform="translate(0,233)"/>
<path d="M0 0 C136.95 0 273.9 0 415 0 C415 10.89 415 21.78 415 33 C278.05 33 141.1 33 0 33 C0 22.11 0 11.22 0 0 Z " fill="#FCFE04" transform="translate(0,267)"/>
<path d="M0 0 C136.95 0 273.9 0 415 0 C415 10.89 415 21.78 415 33 C278.05 33 141.1 33 0 33 C0 22.11 0 11.22 0 0 Z " fill="#FCFE04" transform="translate(0,200)"/>
<path d="M0 0 C136.95 0 273.9 0 415 0 C415 10.89 415 21.78 415 33 C278.05 33 141.1 33 0 33 C0 22.11 0 11.22 0 0 Z " fill="#FC0204" transform="translate(0,167)"/>
<path d="M0 0 C136.95 0 273.9 0 415 0 C415 10.89 415 21.78 415 33 C278.05 33 141.1 33 0 33 C0 22.11 0 11.22 0 0 Z " fill="#FC0204" transform="translate(0,100)"/>
<path d="M0 0 C136.95 0 273.9 0 415 0 C415 10.89 415 21.78 415 33 C278.05 33 141.1 33 0 33 C0 22.11 0 11.22 0 0 Z " fill="#FCFE04" transform="translate(0,67)"/>
<path d="M0 0 C136.95 0 273.9 0 415 0 C415 10.89 415 21.78 415 33 C278.05 33 141.1 33 0 33 C0 22.11 0 11.22 0 0 Z " fill="#FCFE04" transform="translate(0,0)"/>
</svg>
